HIERARCHY
ROOT newVegas:Hips
{
	OFFSET 0.000000 96.479958 0.000000
	CHANNELS 6 Xposition Yposition Zposition Xrotation Yrotation Zrotation
	JOINT newVegas:Pelvis
	{
		OFFSET 0.000000 0.000000 0.000000
		CHANNELS 3 Xrotation Yrotation Zrotation
		JOINT newVegas:LeftUpLeg
		{
			OFFSET 18.735201 -5.666702 -4.541200
			CHANNELS 3 Xrotation Yrotation Zrotation
			JOINT newVegas:LeftLeg
			{
				OFFSET -0.021200 -31.938179 0.493100
				CHANNELS 3 Xrotation Yrotation Zrotation
				JOINT newVegas:LeftFoot
				{
					OFFSET 0.021200 -31.938179 -4.336299
					CHANNELS 3 Xrotation Yrotation Zrotation
					JOINT newVegas:LeftToeBase
					{
						OFFSET 0.943001 -26.722000 15.023500
						CHANNELS 3 Xrotation Yrotation Zrotation
						End Site
						{
							OFFSET 0.000000 30.670183 0.000000
						}
					}
				}
				JOINT newVegas:Left_PantLeg
				{
					OFFSET 0.663870 -9.044666 -1.108900
					CHANNELS 3 Xrotation Yrotation Zrotation
					End Site
					{
						OFFSET 1.415995 20.635357 0.000000
					}
				}
			}
		}
		JOINT newVegas:RightUpLeg
		{
			OFFSET -18.735201 -5.666702 -4.541200
			CHANNELS 3 Xrotation Yrotation Zrotation
			JOINT newVegas:RightLeg
			{
				OFFSET 0.018946 -31.938133 0.493100
				CHANNELS 3 Xrotation Yrotation Zrotation
				JOINT newVegas:RightFoot
				{
					OFFSET -0.018946 -31.938126 -4.336299
					CHANNELS 3 Xrotation Yrotation Zrotation
					JOINT newVegas:RightToeBase
					{
						OFFSET -0.943001 -26.722004 15.023500
						CHANNELS 3 Xrotation Yrotation Zrotation
						End Site
						{
							OFFSET 0.000000 30.670187 0.000000
						}
					}
				}
				JOINT newVegas:Right_PantLeg
				{
					OFFSET -0.661674 -9.044716 -1.108900
					CHANNELS 3 Xrotation Yrotation Zrotation
					End Site
					{
						OFFSET -1.415958 20.635269 0.000000
					}
				}
			}
		}
	}
	JOINT newVegas:Spine
	{
		OFFSET 0.000000 10.199997 -0.299500
		CHANNELS 3 Xrotation Yrotation Zrotation
		JOINT newVegas:Spine1
		{
			OFFSET 0.000000 11.900002 -1.516600
			CHANNELS 3 Xrotation Yrotation Zrotation
			JOINT newVegas:Spine2
			{
				OFFSET 0.000000 13.600006 -2.842500
				CHANNELS 3 Xrotation Yrotation Zrotation
				JOINT newVegas:Neck
				{
					OFFSET 0.000000 9.624100 -2.890100
					CHANNELS 3 Xrotation Yrotation Zrotation
					JOINT newVegas:Head
					{
						OFFSET 0.000000 14.068802 -1.351900
						CHANNELS 3 Xrotation Yrotation Zrotation
						JOINT newVegas:Hair_Back
						{
							OFFSET 0.000000 3.231903 -17.524799
							CHANNELS 3 Xrotation Yrotation Zrotation
							End Site
							{
								OFFSET 0.000000 19.849884 0.000000
							}
						}
						JOINT newVegas:Hair_Front
						{
							OFFSET 0.000000 31.260406 4.573800
							CHANNELS 3 Xrotation Yrotation Zrotation
							JOINT newVegas:Hair_Front1
							{
								OFFSET 0.000000 2.284103 11.993300
								CHANNELS 3 Xrotation Yrotation Zrotation
								JOINT newVegas:Hair_Front2
								{
									OFFSET 0.000000 2.284103 11.993300
									CHANNELS 3 Xrotation Yrotation Zrotation
									End Site
									{
										OFFSET 0.000000 12.208862 0.000000
									}
								}
							}
						}
						JOINT newVegas:Jowel
						{
							OFFSET 0.000000 -7.458206 6.864100
							CHANNELS 3 Xrotation Yrotation Zrotation
							End Site
							{
								OFFSET 0.000000 19.849884 0.000000
							}
						}
					}
				}
				JOINT newVegas:LeftShoulder
				{
					OFFSET 15.263000 10.923401 -0.547700
					CHANNELS 3 Xrotation Yrotation Zrotation
					JOINT newVegas:LeftArm
					{
						OFFSET 25.438599 -2.830597 -13.032500
						CHANNELS 3 Xrotation Yrotation Zrotation
						JOINT newVegas:LeftForeArm
						{
							OFFSET 29.960503 0.000000 0.000000
							CHANNELS 3 Xrotation Yrotation Zrotation
							JOINT newVegas:LeftHand
							{
								OFFSET 27.849251 0.000000 0.000000
								CHANNELS 3 Xrotation Yrotation Zrotation
								JOINT newVegas:LeftHandThumb1
								{
									OFFSET 4.487587 -3.305161 6.305391
									CHANNELS 3 Xrotation Yrotation Zrotation
									JOINT newVegas:LeftHandThumb2
									{
										OFFSET 5.480453 -3.164139 3.164143
										CHANNELS 3 Xrotation Yrotation Zrotation
										JOINT newVegas:LeftHandThumb3
										{
											OFFSET 5.159721 -2.978973 2.978967
											CHANNELS 3 Xrotation Yrotation Zrotation
											End Site
											{
												OFFSET 2.494507 5.926697 1.738678
											}
										}
									}
								}
								JOINT newVegas:LeftHandIndex1
								{
									OFFSET 18.578728 -0.527832 5.208049
									CHANNELS 3 Xrotation Yrotation Zrotation
									JOINT newVegas:LeftHandIndex2
									{
										OFFSET 3.192009 0.000000 0.000000
										CHANNELS 3 Xrotation Yrotation Zrotation
										JOINT newVegas:LeftHandIndex3
										{
											OFFSET 3.835129 0.000000 0.000000
											CHANNELS 3 Xrotation Yrotation Zrotation
											End Site
											{
												OFFSET -0.034599 3.816971 0.371180
											}
										}
									}
								}
								JOINT newVegas:LeftHandMiddle1
								{
									OFFSET 18.476105 0.000000 0.000000
									CHANNELS 3 Xrotation Yrotation Zrotation
									JOINT newVegas:LeftHandMiddle2
									{
										OFFSET 3.324875 0.000000 0.000000
										CHANNELS 3 Xrotation Yrotation Zrotation
										JOINT newVegas:LeftHandMiddle3
										{
											OFFSET 4.596550 0.000000 0.000000
											CHANNELS 3 Xrotation Yrotation Zrotation
											End Site
											{
												OFFSET 0.057701 4.578827 0.399218
											}
										}
									}
								}
								JOINT newVegas:LeftHandRing1
								{
									OFFSET 17.732719 0.121887 -4.201567
									CHANNELS 3 Xrotation Yrotation Zrotation
									JOINT newVegas:LeftHandRing2
									{
										OFFSET 2.733170 0.000000 0.000000
										CHANNELS 3 Xrotation Yrotation Zrotation
										JOINT newVegas:LeftHandRing3
										{
											OFFSET 3.178268 0.000000 0.000000
											CHANNELS 3 Xrotation Yrotation Zrotation
											End Site
											{
												OFFSET 0.119102 3.170624 0.185394
											}
										}
									}
								}
								JOINT newVegas:LeftHandPinky1
								{
									OFFSET 15.989624 -0.606689 -7.535461
									CHANNELS 3 Xrotation Yrotation Zrotation
									JOINT newVegas:LeftHandPinky2
									{
										OFFSET 2.538986 0.000000 0.000000
										CHANNELS 3 Xrotation Yrotation Zrotation
										JOINT newVegas:LeftHandPinky3
										{
											OFFSET 2.593102 0.000000 0.000000
											CHANNELS 3 Xrotation Yrotation Zrotation
											End Site
											{
												OFFSET -0.150902 2.584198 0.152708
											}
										}
									}
								}
							}
							JOINT newVegas:Left_Sleeve
							{
								OFFSET 0.267448 -0.649796 0.577675
								CHANNELS 3 Xrotation Yrotation Zrotation
								End Site
								{
									OFFSET 0.000000 15.991241 0.000000
								}
							}
							JOINT newVegas:Left_CapeC
							{
								OFFSET 15.715958 -8.608795 -6.935905
								CHANNELS 3 Xrotation Yrotation Zrotation
								JOINT newVegas:Left_CapeC1
								{
									OFFSET 0.000000 -8.688499 0.000000
									CHANNELS 3 Xrotation Yrotation Zrotation
									End Site
									{
										OFFSET 0.000000 8.688499 0.000000
									}
								}
							}
						}
						JOINT newVegas:Left_CapeB
						{
							OFFSET 26.118385 -8.608795 -7.079235
							CHANNELS 3 Xrotation Yrotation Zrotation
							JOINT newVegas:Left_CapeB1
							{
								OFFSET 0.000000 -8.688499 0.000000
								CHANNELS 3 Xrotation Yrotation Zrotation
								End Site
								{
									OFFSET 0.000000 8.688499 0.000000
								}
							}
						}
						JOINT newVegas:Left_CapeA
						{
							OFFSET 5.115639 -8.608795 -10.395809
							CHANNELS 3 Xrotation Yrotation Zrotation
							JOINT newVegas:Left_CapeA1
							{
								OFFSET 0.000000 -8.688499 0.000000
								CHANNELS 3 Xrotation Yrotation Zrotation
								End Site
								{
									OFFSET 0.000000 8.688499 0.000000
								}
							}
						}
					}
				}
				JOINT newVegas:RightShoulder
				{
					OFFSET -15.263000 10.923401 -0.547700
					CHANNELS 3 Xrotation Yrotation Zrotation
					JOINT newVegas:RightArm
					{
						OFFSET -25.438599 -2.830597 -13.032500
						CHANNELS 3 Xrotation Yrotation Zrotation
						JOINT newVegas:RightForeArm
						{
							OFFSET -29.960503 0.000000 0.000000
							CHANNELS 3 Xrotation Yrotation Zrotation
							JOINT newVegas:RightHand
							{
								OFFSET -27.849251 0.000000 0.000000
								CHANNELS 3 Xrotation Yrotation Zrotation
								JOINT newVegas:RightHandThumb1
								{
									OFFSET -4.487587 -3.305161 6.305391
									CHANNELS 3 Xrotation Yrotation Zrotation
									JOINT newVegas:RightHandThumb2
									{
										OFFSET -5.480453 -3.164139 3.164143
										CHANNELS 3 Xrotation Yrotation Zrotation
										JOINT newVegas:RightHandThumb3
										{
											OFFSET -5.159721 -2.978973 2.978967
											CHANNELS 3 Xrotation Yrotation Zrotation
											End Site
											{
												OFFSET -2.494507 5.926697 1.738678
											}
										}
									}
								}
								JOINT newVegas:RightHandIndex1
								{
									OFFSET -18.578728 -0.527832 5.208049
									CHANNELS 3 Xrotation Yrotation Zrotation
									JOINT newVegas:RightHandIndex2
									{
										OFFSET -3.192009 0.000000 0.000000
										CHANNELS 3 Xrotation Yrotation Zrotation
										JOINT newVegas:RightHandIndex3
										{
											OFFSET -3.835129 0.000000 0.000000
											CHANNELS 3 Xrotation Yrotation Zrotation
											End Site
											{
												OFFSET 0.034599 3.816971 0.371180
											}
										}
									}
								}
								JOINT newVegas:RightHandMiddle1
								{
									OFFSET -18.476105 0.000000 0.000000
									CHANNELS 3 Xrotation Yrotation Zrotation
									JOINT newVegas:RightHandMiddle2
									{
										OFFSET -3.324875 0.000000 0.000000
										CHANNELS 3 Xrotation Yrotation Zrotation
										JOINT newVegas:RightHandMiddle3
										{
											OFFSET -4.596550 0.000000 0.000000
											CHANNELS 3 Xrotation Yrotation Zrotation
											End Site
											{
												OFFSET -0.057701 4.578827 0.399218
											}
										}
									}
								}
								JOINT newVegas:RightHandRing1
								{
									OFFSET -17.732719 0.121887 -4.201567
									CHANNELS 3 Xrotation Yrotation Zrotation
									JOINT newVegas:RightHandRing2
									{
										OFFSET -2.733170 0.000000 0.000000
										CHANNELS 3 Xrotation Yrotation Zrotation
										JOINT newVegas:RightHandRing3
										{
											OFFSET -3.178268 0.000000 0.000000
											CHANNELS 3 Xrotation Yrotation Zrotation
											End Site
											{
												OFFSET -0.119102 3.170624 0.185394
											}
										}
									}
								}
								JOINT newVegas:RightHandPinky1
								{
									OFFSET -15.989624 -0.606689 -7.535461
									CHANNELS 3 Xrotation Yrotation Zrotation
									JOINT newVegas:RightHandPinky2
									{
										OFFSET -2.538986 0.000000 0.000000
										CHANNELS 3 Xrotation Yrotation Zrotation
										JOINT newVegas:RightHandPinky3
										{
											OFFSET -2.593102 0.000000 0.000000
											CHANNELS 3 Xrotation Yrotation Zrotation
											End Site
											{
												OFFSET 0.150902 2.584198 0.152708
											}
										}
									}
								}
							}
							JOINT newVegas:Right_CapeC
							{
								OFFSET -15.715958 -8.608795 -6.935905
								CHANNELS 3 Xrotation Yrotation Zrotation
								JOINT newVegas:Right_CapeC1
								{
									OFFSET 0.000000 -8.688499 0.000000
									CHANNELS 3 Xrotation Yrotation Zrotation
									End Site
									{
										OFFSET 0.000000 8.688499 0.000000
									}
								}
							}
							JOINT newVegas:Right_Sleeve
							{
								OFFSET -0.267448 -0.649994 0.577675
								CHANNELS 3 Xrotation Yrotation Zrotation
								End Site
								{
									OFFSET 0.000000 15.991302 0.000000
								}
							}
						}
						JOINT newVegas:Right_CapeA
						{
							OFFSET -5.115540 -8.608795 -10.395824
							CHANNELS 3 Xrotation Yrotation Zrotation
							JOINT newVegas:Right_CapeA1
							{
								OFFSET 0.000000 -8.688499 0.000000
								CHANNELS 3 Xrotation Yrotation Zrotation
								End Site
								{
									OFFSET 0.000000 8.688499 0.000000
								}
							}
						}
						JOINT newVegas:Right_CapeB
						{
							OFFSET -26.118187 -8.608795 -7.079266
							CHANNELS 3 Xrotation Yrotation Zrotation
							JOINT newVegas:Right_CapeB1
							{
								OFFSET 0.000000 -8.688499 0.000000
								CHANNELS 3 Xrotation Yrotation Zrotation
								End Site
								{
									OFFSET 0.000000 8.688499 0.000000
								}
							}
						}
					}
				}
				JOINT newVegas:Left_Collar
				{
					OFFSET 18.625099 8.655502 8.828100
					CHANNELS 3 Xrotation Yrotation Zrotation
					JOINT newVegas:Left_Collar1
					{
						OFFSET 14.783401 10.540405 -1.259500
						CHANNELS 3 Xrotation Yrotation Zrotation
						End Site
						{
							OFFSET 0.000000 18.199875 0.000000
						}
					}
				}
				JOINT newVegas:Collar_Back
				{
					OFFSET 0.000000 15.630707 -20.132601
					CHANNELS 3 Xrotation Yrotation Zrotation
					End Site
					{
						OFFSET 0.000000 22.523010 0.000000
					}
				}
				JOINT newVegas:Left_Peck
				{
					OFFSET 17.239599 -5.132599 25.482599
					CHANNELS 3 Xrotation Yrotation Zrotation
					End Site
					{
						OFFSET 0.000000 22.523010 0.000000
					}
				}
				JOINT newVegas:Right_Peck
				{
					OFFSET -17.239599 -5.132202 25.482599
					CHANNELS 3 Xrotation Yrotation Zrotation
					End Site
					{
						OFFSET 0.000000 22.523010 0.000000
					}
				}
				JOINT newVegas:Right_Collar
				{
					OFFSET -18.625099 8.655792 8.828100
					CHANNELS 3 Xrotation Yrotation Zrotation
					JOINT newVegas:Right_Collar1
					{
						OFFSET -14.783401 10.539993 -1.259500
						CHANNELS 3 Xrotation Yrotation Zrotation
						End Site
						{
							OFFSET 0.000000 18.199631 0.000000
						}
					}
				}
			}
		}
		JOINT newVegas:Belly
		{
			OFFSET 0.000000 -6.540398 9.014299
			CHANNELS 3 Xrotation Yrotation Zrotation
			End Site
			{
				OFFSET 0.000000 11.566666 0.000000
			}
		}
	}
	JOINT newVegas:ElvisFacialAnim_Joint
	{
		OFFSET 1.000000 -95.330101 -8.825800
		CHANNELS 3 Xrotation Yrotation Zrotation
		End Site
		{
			OFFSET 0.000000 35.315800 0.000000
		}
	}
}
MOTION
Frames: 4
Frame Time: 0.033333
-19.947361 191.429901 325.819122 8.652176 -8.809019 -25.494304 -0.000000 0.000000 -0.000000 -74.760587 -33.369627 47.715401 106.167060 -8.740872 -3.812475 -42.999726 -2.901431 -19.940148 0.000001 -0.000001 -0.000000 -0.000003 -0.000001 -0.000001 -85.369073 -13.917688 -0.501042 92.608465 0.326613 2.619669 -1.332458 -4.043183 -7.371739 0.000001 0.000002 0.000001 -0.000001 -0.000001 0.000000 10.118355 -0.141509 0.162849 20.206954 1.834746 2.398556 20.206951 1.834741 2.398557 4.040837 -0.011423 -3.508464 4.040820 -0.011427 -3.508457 -0.000001 0.000001 0.000000 4.040843 -0.011417 -3.508464 4.040862 -0.011425 -3.508468 -0.000000 -0.000000 -0.000000 -0.000001 0.000001 0.000000 0.554338 8.711376 -9.524291 -7.377613 47.971554 -28.000427 -0.557141 -145.222908 -0.430714 36.674045 -1.684615 21.117263 -17.854973 -1.342462 -6.836339 -2.342609 0.592088 3.086913 -0.000000 0.000002 -0.000004 3.171948 0.001177 7.080707 0.019593 0.609621 -7.108732 0.000000 -0.000000 0.000001 -1.029120 4.481811 8.736836 -0.023862 0.107362 -4.811930 0.000000 0.000001 0.000001 -11.222891 6.604615 5.486904 0.004261 -0.570890 -0.503830 0.000000 -0.000001 0.000000 -8.911942 20.279566 9.568597 0.270562 -8.139037 -4.567221 -0.000000 -0.000003 -0.000001 0.000003 0.000003 -0.000001 0.000003 0.000003 -0.000001 0.000002 0.000003 -0.000001 0.000001 -0.000003 -0.000000 0.000001 -0.000003 0.000000 0.000001 -0.000003 -0.000000 0.000000 -0.000002 -0.000000 0.397516 -3.231660 7.262194 -2.574879 21.370304 38.387538 1.122270 108.503477 -0.212980 43.029977 -5.004246 -46.316076 -3.291607 27.868710 -21.496514 -0.984924 -0.156958 -1.868819 0.000003 -0.000006 -0.000002 -4.712418 16.032971 8.046421 0.002173 -0.245209 0.024238 -0.000000 -0.000003 -0.000000 -4.089482 -2.343017 2.407222 -0.038426 -0.029993 7.608036 0.000001 0.000001 0.000001 1.982432 -9.078600 4.533307 -0.009983 0.902360 3.869935 -0.000000 0.000002 -0.000000 -5.630088 -16.905953 2.530595 -0.035644 3.977421 6.124982 0.000001 0.000003 -0.000001 -0.000003 -0.000001 0.000003 -0.000000 0.000000 0.000002 -0.000003 -0.000001 0.000003 0.000001 -0.000001 -0.000000 0.000000 0.000000 0.000001 0.000001 -0.000001 -0.000000 0.000000 0.000000 0.000003 0.000000 -0.000000 -0.000000 0.000000 -0.000000 -0.000000 0.000000 -0.000000 -0.000000 0.000000 -0.000000 -0.000000 0.000000 -0.000000 -0.000000 0.000000 -0.000000 -0.000000 0.000000 -0.000000 -0.000000 -0.000000 0.000001 -0.000001 -0.000000 0.000000 -0.000000 
-19.305103 195.471466 327.239349 15.274968 -15.185215 -24.443960 -0.000000 0.000002 0.000003 -73.019592 -28.674302 47.074333 99.058370 -8.036685 -3.632779 -44.558607 5.056368 -18.252953 -0.000000 -0.000001 -0.000001 0.000000 -0.000001 0.000001 -82.488802 -12.242243 -5.728230 86.730691 0.477838 2.572011 -4.938179 -7.254731 -3.277919 0.000000 0.000002 0.000001 -0.000001 0.000001 0.000000 8.908480 0.876203 -0.477793 17.767610 3.404582 0.810430 17.767591 3.404585 0.810436 3.264313 -0.008578 -3.264773 3.264292 -0.008574 -3.264763 0.000001 -0.000000 -0.000000 3.264294 -0.008578 -3.264774 3.264284 -0.008578 -3.264769 -0.000001 0.000001 0.000000 0.000001 -0.000000 -0.000000 0.577035 8.313072 -9.878906 3.646995 43.704079 -38.548638 -1.586726 -141.636800 -1.289592 46.694462 -3.150512 29.498692 -16.787106 0.477046 -7.468294 -2.347030 0.593844 3.089035 0.000002 0.000003 -0.000000 3.152096 -0.153209 6.884245 0.014156 0.585634 -5.621777 -0.000000 -0.000000 0.000001 -1.005893 4.327596 8.764876 -0.021465 0.138477 -4.430714 -0.000000 0.000001 0.000000 -10.979708 6.586597 5.495627 0.004551 -0.528183 -0.001952 -0.000001 -0.000001 0.000001 -8.827401 20.118320 9.785076 0.294639 -8.136815 -4.170129 -0.000000 -0.000002 0.000000 0.000000 -0.000000 0.000003 0.000000 -0.000000 0.000003 -0.000001 -0.000000 0.000003 0.000002 0.000000 0.000001 0.000002 -0.000001 0.000001 0.000002 0.000000 0.000001 0.000001 0.000001 0.000001 0.419882 -4.294506 8.314766 -0.290359 24.855595 40.421206 1.216708 100.451524 -0.302278 45.687279 -1.789354 -55.807041 -4.190281 27.560228 -20.301221 -0.977932 -0.155545 -1.857985 0.000000 -0.000004 -0.000001 -4.714869 16.044582 9.502176 0.001582 -0.155579 0.015242 0.000000 -0.000001 -0.000000 -4.041589 -2.292344 3.106570 -0.041965 -0.005844 8.001741 -0.000000 -0.000000 -0.000001 2.131753 -9.059216 5.208701 -0.013219 0.950300 4.314115 -0.000000 0.000001 -0.000001 -5.593037 -17.089463 2.641550 -0.076343 4.287114 7.932892 0.000000 0.000002 0.000001 0.000003 -0.000003 0.000001 -0.000002 -0.000001 -0.000000 0.000003 -0.000003 0.000002 0.000003 0.000001 -0.000000 0.000002 0.000002 -0.000001 0.000003 0.000001 -0.000000 0.000002 0.000002 0.000000 0.000000 0.000002 0.000000 0.000000 0.000002 0.000000 0.000000 0.000002 0.000000 0.000000 0.000002 0.000000 0.000000 0.000002 0.000000 0.000000 0.000002 0.000000 0.000000 0.000002 0.000000 0.000000 0.000000 -0.000000 -0.000000 0.000002 0.000003 
-18.764317 199.923096 329.081299 20.729488 -19.234569 -23.353793 -0.000000 -0.000001 0.000001 -71.693381 -24.937972 45.970957 90.839282 -7.370505 -3.398426 -42.114427 10.351868 -16.908140 0.000001 0.000000 0.000001 0.000002 0.000002 0.000001 -75.141554 -10.835291 -10.951885 76.263946 0.459944 2.517651 -6.132315 -8.038485 3.925555 -0.000001 0.000001 0.000001 0.000001 0.000000 -0.000000 8.000972 1.666810 -1.074356 15.960856 4.683550 -0.585676 15.960863 4.683534 -0.585683 2.290492 -0.039598 -2.924757 2.290487 -0.039604 -2.924745 -0.000000 -0.000002 0.000000 2.290538 -0.039571 -2.924765 2.290521 -0.039640 -2.924744 -0.000000 0.000001 -0.000000 -0.000000 -0.000002 0.000000 0.238103 5.981029 -6.888289 13.520492 35.946886 -48.328093 -2.510322 -135.665889 -1.895340 56.957993 -1.157350 38.265076 -15.056961 1.133917 -7.957144 -2.350999 0.595445 3.090898 0.000003 -0.000002 -0.000003 3.149787 -0.523555 6.527247 0.010338 0.567214 -4.482212 -0.000000 0.000000 -0.000001 -0.966317 4.003190 8.635010 -0.020319 0.153640 -4.244963 -0.000000 0.000001 0.000001 -10.718193 6.547841 5.266783 0.004540 -0.518709 -0.000064 0.000001 -0.000001 0.000001 -8.716125 19.917938 9.760861 0.314641 -8.152528 -3.968380 -0.000000 -0.000002 0.000000 0.000001 0.000001 -0.000000 0.000001 0.000001 -0.000000 0.000000 0.000001 -0.000000 0.000001 0.000001 -0.000003 0.000001 0.000002 -0.000002 0.000001 0.000001 -0.000003 0.000001 0.000000 -0.000003 0.549038 -5.388437 10.301144 -0.544507 29.958405 42.279790 -9.250408 88.365163 9.881516 48.092113 2.172299 -65.642578 -5.010783 27.176066 -19.144901 -0.970805 -0.154077 -1.846910 -0.000001 -0.000000 -0.000001 -4.714182 16.052613 11.012444 0.002428 -0.093791 0.009042 0.000001 0.000001 0.000000 -3.994181 -2.234562 3.906175 -0.047124 0.026558 8.532073 0.000000 -0.000001 0.000001 2.277514 -9.027519 5.988485 -0.017959 1.013598 4.900670 -0.000000 0.000001 -0.000001 -5.556963 -17.240478 2.871552 -0.126756 4.610746 9.825416 0.000002 -0.000000 -0.000000 -0.000001 0.000001 0.000001 -0.000001 -0.000001 0.000001 -0.000001 0.000001 0.000001 0.000001 0.000003 0.000001 -0.000000 0.000003 0.000002 0.000001 0.000003 0.000001 -0.000000 0.000003 0.000003 -0.000002 0.000002 0.000000 -0.000002 0.000002 0.000000 -0.000002 0.000002 0.000000 -0.000002 0.000002 0.000000 -0.000002 0.000002 0.000000 -0.000002 0.000002 0.000000 -0.000002 0.000002 0.000000 -0.000000 0.000001 0.000001 -0.000000 -0.000001 0.000001 
-18.185299 204.647308 331.202942 24.267966 -21.068374 -23.683736 -0.000002 0.000001 -0.000002 -70.767351 -23.930905 45.431498 82.892555 -6.868334 -3.180222 -33.746865 12.316650 -17.221799 0.000000 -0.000001 -0.000000 -0.000003 -0.000000 0.000001 -72.597944 -8.751170 -18.088682 75.939109 0.868027 2.522111 -11.627570 -7.073822 7.899430 0.000000 -0.000000 0.000000 0.000000 0.000000 -0.000003 7.486199 2.360735 -1.181063 14.954884 5.738257 -1.259903 14.954872 5.738255 -1.259901 1.306792 -0.108220 -2.614736 1.306782 -0.108219 -2.614726 -0.000000 0.000001 -0.000001 1.306808 -0.108220 -2.614741 1.306912 -0.108197 -2.614744 0.000003 -0.000001 -0.000001 -0.000000 0.000001 -0.000001 0.077046 2.865701 -1.692178 19.275117 26.314808 -55.339381 -3.630289 -127.519427 -2.756602 64.215615 3.154047 46.743926 -13.220576 1.002118 -8.195581 -2.354549 0.596880 3.092565 -0.000001 0.000000 0.000001 3.166117 -1.135964 6.253045 0.007764 0.551671 -3.533478 -0.000000 -0.000001 -0.000000 -0.914594 3.520261 8.631488 -0.018915 0.172369 -4.015461 -0.000001 -0.000000 0.000000 -10.456384 6.510660 5.035933 0.004456 -0.510104 0.000029 -0.000000 -0.000001 0.000000 -8.605649 19.719188 9.737599 0.335844 -8.163110 -3.723100 0.000000 -0.000005 -0.000000 0.000000 0.000000 0.000003 0.000000 0.000000 0.000003 -0.000001 0.000000 0.000004 -0.000001 -0.000002 0.000002 -0.000001 -0.000001 0.000002 -0.000001 -0.000002 0.000002 -0.000001 -0.000002 0.000001 0.774988 -5.991768 12.489609 -2.997541 35.180624 44.165687 -1.722477 74.140064 2.054774 50.364592 5.702459 -75.872501 -5.708185 26.710927 -18.043845 -0.963374 -0.152537 -1.835414 -0.000002 -0.000004 0.000001 -4.700498 16.041104 12.668564 0.007911 -0.090143 0.008670 -0.000001 0.000000 -0.000000 -3.947653 -2.161359 4.941733 -0.054794 0.078406 9.377954 0.000000 0.000000 -0.000001 2.411602 -8.968435 7.012283 -0.027574 1.111852 5.814811 -0.000000 0.000002 -0.000000 -5.522097 -17.324309 3.372521 -0.197523 4.970425 11.946729 0.000001 0.000003 0.000000 -0.000001 0.000000 -0.000000 -0.000001 -0.000001 0.000000 -0.000001 0.000000 -0.000000 -0.000000 0.000003 0.000003 -0.000000 0.000003 0.000001 -0.000000 0.000003 0.000003 -0.000000 0.000003 0.000003 -0.000000 0.000000 0.000000 -0.000000 0.000000 0.000000 -0.000000 0.000000 0.000000 -0.000000 0.000000 0.000000 -0.000000 0.000000 0.000000 -0.000000 0.000000 0.000000 -0.000000 0.000000 0.000000 0.000002 0.000001 0.000000 -0.000002 0.000001 -0.000002 
